<svg xmlns="http://www.w3.org/2000/svg" viewBox="0 0 32 32" width="64" height="64">
    <path style="text-indent:0;text-align:start;line-height:normal;text-transform:none;block-progression:tb;-inkscape-font-specification:Sans" d="M 8 3 C 6.9069372 3 6 3.9069372 6 5 L 6 27 C 6 28.093063 6.9069372 29 8 29 L 24 29 C 25.093063 29 26 28.093063 26 27 L 26 10 L 26 9.59375 L 25.71875 9.28125 L 19.71875 3.28125 L 19.40625 3 L 19 3 L 8 3 z M 8 5 L 17 5 L 17 10 C 17 11.093063 17.906937 12 19 12 L 24 12 L 24 27 L 8 27 L 8 5 z M 19 5.4375 L 23.5625 10 L 19 10 L 19 5.4375 z M 11 15 L 11 17 L 21 17 L 21 15 L 11 15 z M 11 18 L 11 20 L 21 20 L 21 18 L 11 18 z M 11 21 L 11 23 L 16 23 L 16 21 L 11 21 z" color="#000" overflow="visible" font-family="Sans"/>
</svg>